<mxfile host="app.diagrams.net" agent="Mozilla/5.0 (Windows NT 10.0; Win64; x64) AppleWebKit/537.36 (KHTML, like Gecko) Chrome/135.0.0.0 Safari/537.36" version="26.2.9">
  <diagram name="Page-1" id="rSloRg01U4kAVrSSbnif">
    <mxGraphModel dx="16280" dy="7930" grid="0" gridSize="10" guides="1" tooltips="1" connect="1" arrows="1" fold="1" page="0" pageScale="1" pageWidth="827" pageHeight="1169" math="0" shadow="0">
      <root>
        <mxCell id="0" />
        <mxCell id="1" parent="0" />
        <mxCell id="fiK50_J0pXnCrrFy3Buz-1" value="" style="shape=image;verticalLabelPosition=bottom;labelBackgroundColor=default;verticalAlign=top;aspect=fixed;imageAspect=0;image=https://adiy.in/wp-content/uploads/2024/03/1-1.jpg;clipPath=inset(16% 32.67% 15.33% 31.67%);" vertex="1" parent="1">
          <mxGeometry x="2487" y="923" width="1613.31" height="3106" as="geometry" />
        </mxCell>
        <mxCell id="fiK50_J0pXnCrrFy3Buz-2" value="" style="shape=image;verticalLabelPosition=bottom;labelBackgroundColor=default;verticalAlign=top;aspect=fixed;imageAspect=0;image=https://m.media-amazon.com/images/I/61zhlIwM6bL._AC_UF1000,1000_QL80_.jpg;" vertex="1" parent="1">
          <mxGeometry x="4698" y="4099" width="1418.55" height="1193" as="geometry" />
        </mxCell>
        <mxCell id="fiK50_J0pXnCrrFy3Buz-3" value="&lt;h1 style=&quot;margin-top: 0px;&quot;&gt;loa, còi chip, ESp32, mạch khuếch đại âm thanh, tụ điện&lt;/h1&gt;" style="text;html=1;whiteSpace=wrap;overflow=hidden;rounded=0;" vertex="1" parent="1">
          <mxGeometry x="-854" y="-156" width="180" height="120" as="geometry" />
        </mxCell>
        <mxCell id="fiK50_J0pXnCrrFy3Buz-5" value="" style="shape=image;verticalLabelPosition=bottom;labelBackgroundColor=default;verticalAlign=top;aspect=fixed;imageAspect=0;image=https://abacasstorageaccnt.blob.core.windows.net/cirkit/757f197e-acec-4cba-94af-72d864349735.png;" vertex="1" parent="1">
          <mxGeometry x="-1824.003333333333" y="3860.996666666667" width="864" height="1200" as="geometry" />
        </mxCell>
        <mxCell id="fiK50_J0pXnCrrFy3Buz-6" value="" style="shape=image;verticalLabelPosition=bottom;labelBackgroundColor=default;verticalAlign=top;aspect=fixed;imageAspect=0;image=https://ae01.alicdn.com/kf/Sdf1b4f96711141f8a2fd697b9d61ed15A.jpg;rotation=-180;clipPath=inset(23% 19.33% 20% 19.33%);" vertex="1" parent="1">
          <mxGeometry x="79" y="4471" width="1448" height="1345.6956521739132" as="geometry" />
        </mxCell>
        <mxCell id="fiK50_J0pXnCrrFy3Buz-8" value="" style="shape=image;verticalLabelPosition=bottom;labelBackgroundColor=default;verticalAlign=top;aspect=fixed;imageAspect=0;image=https://www.robotedu.my/image/robotedu/image/data/all_product_images/product-3217/capacitor.JPG;clipPath=inset(7% 27.5% 11% 21.25%);" vertex="1" parent="1">
          <mxGeometry x="-586" y="2338" width="342.66666666666663" height="1028" as="geometry" />
        </mxCell>
        <mxCell id="fiK50_J0pXnCrrFy3Buz-9" value="" style="shape=image;verticalLabelPosition=bottom;labelBackgroundColor=default;verticalAlign=top;aspect=fixed;imageAspect=0;image=https://nshopvn.com/wp-content/uploads/2019/03/coi-buzz-thu-dong-5v-xsqe-1.jpg;" vertex="1" parent="1">
          <mxGeometry x="738" y="919" width="737" height="737" as="geometry" />
        </mxCell>
        <mxCell id="fiK50_J0pXnCrrFy3Buz-16" value="" style="endArrow=none;html=1;rounded=0;fontSize=12;startSize=8;endSize=8;curved=1;" edge="1" parent="1">
          <mxGeometry width="50" height="50" relative="1" as="geometry">
            <mxPoint x="5575" y="3455" as="sourcePoint" />
            <mxPoint x="5625" y="3405" as="targetPoint" />
          </mxGeometry>
        </mxCell>
        <mxCell id="fiK50_J0pXnCrrFy3Buz-22" style="edgeStyle=none;curved=1;rounded=0;orthogonalLoop=1;jettySize=auto;html=1;exitX=0;exitY=0.5;exitDx=0;exitDy=0;fontSize=12;startSize=8;endSize=8;" edge="1" parent="1" source="fiK50_J0pXnCrrFy3Buz-5" target="fiK50_J0pXnCrrFy3Buz-5">
          <mxGeometry relative="1" as="geometry" />
        </mxCell>
        <mxCell id="fiK50_J0pXnCrrFy3Buz-27" style="rounded=0;orthogonalLoop=1;jettySize=auto;html=1;exitX=1;exitY=0.75;exitDx=0;exitDy=0;entryX=0.372;entryY=0.012;entryDx=0;entryDy=0;entryPerimeter=0;fontSize=12;strokeWidth=13;strokeColor=default;curved=0;endArrow=none;endFill=1;startArrow=none;startFill=0;" edge="1" parent="1" source="fiK50_J0pXnCrrFy3Buz-1" target="fiK50_J0pXnCrrFy3Buz-2">
          <mxGeometry relative="1" as="geometry">
            <Array as="points">
              <mxPoint x="5206" y="3268" />
            </Array>
          </mxGeometry>
        </mxCell>
        <mxCell id="fiK50_J0pXnCrrFy3Buz-28" style="rounded=0;orthogonalLoop=1;jettySize=auto;html=1;exitX=1;exitY=0.75;exitDx=0;exitDy=0;entryX=0.424;entryY=0.008;entryDx=0;entryDy=0;entryPerimeter=0;fontSize=12;strokeWidth=13;strokeColor=#B20000;curved=0;endArrow=none;endFill=1;startArrow=none;startFill=0;fillColor=#e51400;" edge="1" parent="1" target="fiK50_J0pXnCrrFy3Buz-2">
          <mxGeometry relative="1" as="geometry">
            <mxPoint x="4050" y="3346" as="sourcePoint" />
            <mxPoint x="5176" y="4206" as="targetPoint" />
            <Array as="points">
              <mxPoint x="4514" y="3346" />
              <mxPoint x="4514" y="741" />
              <mxPoint x="5247" y="741" />
            </Array>
          </mxGeometry>
        </mxCell>
        <mxCell id="fiK50_J0pXnCrrFy3Buz-29" style="rounded=0;orthogonalLoop=1;jettySize=auto;html=1;exitX=0.25;exitY=1;exitDx=0;exitDy=0;fontSize=12;strokeWidth=13;strokeColor=#005700;curved=0;endArrow=none;endFill=1;startArrow=none;startFill=0;entryX=0.99;entryY=0.589;entryDx=0;entryDy=0;entryPerimeter=0;fillColor=#008a00;" edge="1" parent="1" source="fiK50_J0pXnCrrFy3Buz-9" target="fiK50_J0pXnCrrFy3Buz-1">
          <mxGeometry relative="1" as="geometry">
            <mxPoint x="600" y="1872" as="sourcePoint" />
            <mxPoint x="1597" y="2583" as="targetPoint" />
            <Array as="points">
              <mxPoint x="594" y="1656" />
              <mxPoint x="594" y="472" />
              <mxPoint x="4810" y="472" />
              <mxPoint x="4824" y="2752" />
            </Array>
          </mxGeometry>
        </mxCell>
        <mxCell id="fiK50_J0pXnCrrFy3Buz-30" style="rounded=0;orthogonalLoop=1;jettySize=auto;html=1;exitX=1;exitY=0.75;exitDx=0;exitDy=0;entryX=0.372;entryY=0.012;entryDx=0;entryDy=0;entryPerimeter=0;fontSize=12;strokeWidth=13;strokeColor=default;curved=0;endArrow=none;endFill=1;startArrow=none;startFill=0;" edge="1" parent="1">
          <mxGeometry relative="1" as="geometry">
            <mxPoint x="2162" y="6383" as="sourcePoint" />
            <mxPoint x="3288" y="7243" as="targetPoint" />
            <Array as="points">
              <mxPoint x="3268" y="6398" />
            </Array>
          </mxGeometry>
        </mxCell>
        <mxCell id="fiK50_J0pXnCrrFy3Buz-31" style="rounded=0;orthogonalLoop=1;jettySize=auto;html=1;fontSize=12;strokeWidth=13;strokeColor=#B20000;curved=0;endArrow=none;endFill=1;startArrow=none;startFill=0;exitX=0.697;exitY=0.996;exitDx=0;exitDy=0;exitPerimeter=0;fillColor=#e51400;" edge="1" parent="1" source="fiK50_J0pXnCrrFy3Buz-9">
          <mxGeometry relative="1" as="geometry">
            <mxPoint x="1959" y="714" as="sourcePoint" />
            <mxPoint x="4528" y="741" as="targetPoint" />
            <Array as="points">
              <mxPoint x="1822" y="1653" />
              <mxPoint x="1812" y="741" />
              <mxPoint x="3102" y="727" />
            </Array>
          </mxGeometry>
        </mxCell>
        <mxCell id="fiK50_J0pXnCrrFy3Buz-32" style="rounded=0;orthogonalLoop=1;jettySize=auto;html=1;exitX=1;exitY=0.75;exitDx=0;exitDy=0;entryX=0.372;entryY=0.012;entryDx=0;entryDy=0;entryPerimeter=0;fontSize=12;strokeWidth=13;strokeColor=default;curved=0;endArrow=none;endFill=1;startArrow=none;startFill=0;" edge="1" parent="1">
          <mxGeometry relative="1" as="geometry">
            <mxPoint x="2172" y="6393" as="sourcePoint" />
            <mxPoint x="3298" y="7253" as="targetPoint" />
            <Array as="points">
              <mxPoint x="3278" y="6408" />
            </Array>
          </mxGeometry>
        </mxCell>
        <mxCell id="fiK50_J0pXnCrrFy3Buz-33" style="rounded=0;orthogonalLoop=1;jettySize=auto;html=1;exitX=1;exitY=0.75;exitDx=0;exitDy=0;fontSize=12;strokeWidth=13;strokeColor=default;curved=0;endArrow=none;endFill=1;startArrow=none;startFill=0;" edge="1" parent="1">
          <mxGeometry relative="1" as="geometry">
            <mxPoint x="1368" y="5136" as="sourcePoint" />
            <mxPoint x="2021" y="4621" as="targetPoint" />
            <Array as="points">
              <mxPoint x="2021" y="5157" />
            </Array>
          </mxGeometry>
        </mxCell>
        <mxCell id="fiK50_J0pXnCrrFy3Buz-34" style="rounded=0;orthogonalLoop=1;jettySize=auto;html=1;exitX=0.986;exitY=0.3;exitDx=0;exitDy=0;entryX=0.372;entryY=0.012;entryDx=0;entryDy=0;entryPerimeter=0;fontSize=12;strokeWidth=13;strokeColor=#d6b656;curved=0;endArrow=none;endFill=1;startArrow=none;startFill=0;exitPerimeter=0;fillColor=#fff2cc;" edge="1" parent="1" source="fiK50_J0pXnCrrFy3Buz-1">
          <mxGeometry relative="1" as="geometry">
            <mxPoint x="4354" y="3291" as="sourcePoint" />
            <mxPoint x="5480" y="4151" as="targetPoint" />
            <Array as="points">
              <mxPoint x="5452" y="1869" />
            </Array>
          </mxGeometry>
        </mxCell>
        <mxCell id="fiK50_J0pXnCrrFy3Buz-35" style="rounded=0;orthogonalLoop=1;jettySize=auto;html=1;exitX=1;exitY=0.75;exitDx=0;exitDy=0;fontSize=12;strokeWidth=13;strokeColor=default;curved=0;endArrow=none;endFill=1;startArrow=none;startFill=0;" edge="1" parent="1">
          <mxGeometry relative="1" as="geometry">
            <mxPoint x="1378" y="4729" as="sourcePoint" />
            <mxPoint x="2020" y="3463" as="targetPoint" />
            <Array as="points">
              <mxPoint x="2020" y="4704" />
            </Array>
          </mxGeometry>
        </mxCell>
        <mxCell id="fiK50_J0pXnCrrFy3Buz-36" style="rounded=0;orthogonalLoop=1;jettySize=auto;html=1;exitX=0.25;exitY=1;exitDx=0;exitDy=0;entryX=0.007;entryY=0.741;entryDx=0;entryDy=0;entryPerimeter=0;fontSize=12;strokeWidth=13;strokeColor=default;curved=0;endArrow=none;endFill=1;startArrow=none;startFill=0;" edge="1" parent="1" source="fiK50_J0pXnCrrFy3Buz-8" target="fiK50_J0pXnCrrFy3Buz-1">
          <mxGeometry relative="1" as="geometry">
            <mxPoint x="-513" y="3259" as="sourcePoint" />
            <mxPoint x="613" y="4119" as="targetPoint" />
            <Array as="points">
              <mxPoint x="-513" y="3474" />
              <mxPoint x="2299" y="3474" />
            </Array>
          </mxGeometry>
        </mxCell>
        <mxCell id="fiK50_J0pXnCrrFy3Buz-37" style="rounded=0;orthogonalLoop=1;jettySize=auto;html=1;exitX=1;exitY=0.75;exitDx=0;exitDy=0;fontSize=12;strokeWidth=13;strokeColor=#B20000;curved=0;endArrow=none;endFill=1;startArrow=none;startFill=0;fillColor=#e51400;" edge="1" parent="1">
          <mxGeometry relative="1" as="geometry">
            <mxPoint x="1352" y="4536" as="sourcePoint" />
            <mxPoint x="1352" y="3345" as="targetPoint" />
            <Array as="points" />
          </mxGeometry>
        </mxCell>
        <mxCell id="fiK50_J0pXnCrrFy3Buz-38" style="rounded=0;orthogonalLoop=1;jettySize=auto;html=1;fontSize=12;strokeWidth=13;strokeColor=#B20000;curved=0;endArrow=none;endFill=1;startArrow=none;startFill=0;entryX=-0.003;entryY=0.784;entryDx=0;entryDy=0;entryPerimeter=0;fillColor=#e51400;" edge="1" parent="1" target="fiK50_J0pXnCrrFy3Buz-1">
          <mxGeometry relative="1" as="geometry">
            <mxPoint x="-346" y="3358" as="sourcePoint" />
            <mxPoint x="2501" y="2727.9785941653463" as="targetPoint" />
            <Array as="points">
              <mxPoint x="764" y="3358" />
            </Array>
          </mxGeometry>
        </mxCell>
        <mxCell id="fiK50_J0pXnCrrFy3Buz-39" style="rounded=0;orthogonalLoop=1;jettySize=auto;html=1;exitX=1;exitY=0.75;exitDx=0;exitDy=0;fontSize=12;strokeWidth=13;strokeColor=#B20000;curved=0;endArrow=none;endFill=1;startArrow=none;startFill=0;fillColor=#e51400;" edge="1" parent="1">
          <mxGeometry relative="1" as="geometry">
            <mxPoint x="-1377" y="5047" as="sourcePoint" />
            <mxPoint x="326" y="5062" as="targetPoint" />
            <Array as="points">
              <mxPoint x="-271" y="5062" />
            </Array>
          </mxGeometry>
        </mxCell>
        <mxCell id="fiK50_J0pXnCrrFy3Buz-40" style="rounded=0;orthogonalLoop=1;jettySize=auto;html=1;fontSize=12;strokeWidth=13;strokeColor=default;curved=0;endArrow=none;endFill=1;startArrow=none;startFill=0;" edge="1" parent="1">
          <mxGeometry relative="1" as="geometry">
            <mxPoint x="-1433" y="5021" as="sourcePoint" />
            <mxPoint x="326" y="5224" as="targetPoint" />
            <Array as="points">
              <mxPoint x="-1433" y="5160" />
            </Array>
          </mxGeometry>
        </mxCell>
        <mxCell id="fiK50_J0pXnCrrFy3Buz-41" value="v" style="rounded=0;orthogonalLoop=1;jettySize=auto;html=1;fontSize=12;strokeWidth=13;strokeColor=#3700CC;curved=0;endArrow=none;endFill=1;startArrow=none;startFill=0;fillColor=#6a00ff;" edge="1" parent="1" target="fiK50_J0pXnCrrFy3Buz-2">
          <mxGeometry relative="1" as="geometry">
            <mxPoint x="4092" y="1416" as="sourcePoint" />
            <mxPoint x="5391" y="4048" as="targetPoint" />
            <Array as="points">
              <mxPoint x="5345" y="1416" />
            </Array>
          </mxGeometry>
        </mxCell>
        <mxCell id="fiK50_J0pXnCrrFy3Buz-42" style="edgeStyle=none;curved=1;rounded=0;orthogonalLoop=1;jettySize=auto;html=1;exitX=0.5;exitY=0;exitDx=0;exitDy=0;entryX=0.459;entryY=-0.004;entryDx=0;entryDy=0;entryPerimeter=0;fontSize=12;startSize=8;endSize=8;" edge="1" parent="1" source="fiK50_J0pXnCrrFy3Buz-2" target="fiK50_J0pXnCrrFy3Buz-2">
          <mxGeometry relative="1" as="geometry" />
        </mxCell>
        <mxCell id="fiK50_J0pXnCrrFy3Buz-43" value="" style="shape=image;verticalLabelPosition=bottom;labelBackgroundColor=default;verticalAlign=top;aspect=fixed;imageAspect=0;image=data:image/png,iVBORw0KGgoAAAANSUhEUgAAADEAAABWCAYAAABmbX7+AAAAAXNSR0IArs4c6QAAAARnQU1BAACxjwv8YQUAAAAJcEhZcwAADsMAAA7DAcdvqGQAACFPSURBVHhebZtZcyzJdZizu3rvxg7cFZi5c2chKVIczVC0TdM2I2hroSMky+ElKJoUqSUkOcJ+9yPCT/5x9oMfrDClWXj3BTvQQHejN3/fySrcOxOuxkFVV2Vlnn3JzK79j//y35e1WkqphKIoUr1R58sy/qpHy8UiLebz1Gw2UmoVaUmbRq+dGu1WqjWKtLa5kXZ2dtLG+kZqd9qpVq+nBR3QxVcPBrO/rx9Lx1ryhPN8Ok/zyTRNRuM0urhMF+fDdHpyks7PL9KQ79eTa9rVwKWZmo1mqv3XP/rb5bKWh/LcavEAqI5aiUaNUbxecp4VyzSHzvZqL/VXV9LK+lq6c/9eur+3G0S0ICwOCKmJNLCQCUAwo4SvElNLRa1IzaKZrsfTNB1NOF+n0fAqnZ+dpxfPXwIv0utXB9FWIvJbwH/+yd8ElkEId+oFA9d9JNLxhDPIO/B8BoGNVGtnaXRX+2ljZzs9+OD9tHP3dtrY3EzdbjfenyO1jPwyTacgdX2d5rNZMKHkS/SvdG27pF1tWU91CKlzXswW6fpqks5OztLR4XF6BfLHR0rjPL9pH1U/f/2v/oZu+ZREhAIE9rmVBGQJwMXlPHVQlaLbSkWnkdZ2NtOd3fvpo29/K63vbKVer5eKRiPeFGFhPB6jDudpdHUVnJWIQukgJRkzg0DVYz6bQxFMTI1U1GEUX5XI+cl5OgL5w4OjNEI6s2CEqPkvE1P7ix/9Fehl7c0q6V0QLwmpiCiQUAspFNhCvY3K9Vpp7/0H6d0PHqZ77+6lzuqA563QUzuXw8OLC7h4mF48e54uUIkxhIhsE0IbRSNNQV4iR1ejdH09hYhaatSbvAsWM6Ak5PJyBCHHENcMSc8kmKMOIwLdX/3zvwTLTEA+e5c/IGtVJsL2vqQ6NZBEa9BJ73/zo/TeNz5MO7t3U7PfAbEikFM15PDrly/Ts6dP06MvfpOGQcQINZmH7hf0pcrI2RmGLGIiXUMWcDUI8lqCZrQbIwXlpONRRZWosvAfb3jBC5mK/JEAKFCn6zX1VIohBfEH5XYPIq1mC/XqhArV6ngs7s9DRWZwcJJOj08h5HV6hVEevHidjl8dppNXR+no5UE6fPY6ri8OUbWzqzS5GKfJcJyuuB6dIx2uhcloCrHL1Gl1McMWhIIcNrME5tyfQ2R9AfmLhTCjMaCRAXENdyrDE/mG7kyRgKxEyfVGA0/Es+AOMIeACQRc4VVOj0/S6eFJujwbpsnlOM3Hs5SmNL5+C8rvtRmsweXVF0XYw5L7s2uZcR0qFdJx3GBh/lTf680CZBoihEkJSKAI7ivMN6D4RTqkUh6BuEQjbkQQML+eh3vUv1+eXMDlYZqPrlMNpAq4WIBosRBZQKQD8XyvIagy8eG+13orxlR9tNzgWBzVNZJo4ipbzQxtAlkL1Wiq26hHJqq65j7P7LDigxKaYpAaq4QIC7lHkLoiQAmT4QguL1MD8TdBsQl6jSUSBIqvA8/9b5smHqpFzFBls7MAXXAutb48SiLaINYB+Q4G2w5oQozQyoDH6bQ7ERmjBzsK95bSZDJJl8PLNEXkqlEYaqlOl6jTlKirrbUb7YAO0ESvG7XM7xsIbmeOey6CYeDAuJ0274JDAxy10zg4Vd4z1RbENgwRw8jAvdD4MGi4XUEYue/QIFQIZOG4acF4NIpgtuCej8NmQGbBl6nqZZ8wQ8AD8AwHQBtBG53rEe2f1KUOop4RPW15yElvaQjwqKv6aEzhsyCC/udTcMdXL4imi+BkNmaRrFKDMPr4zmAR8HiRNhP8+xgiJhGAaFMS0IRrLbhXcHboGcTUKu8FAQu4IQEiyUjRRiIKCCiIPwXaUIMIzIN35+l6RjAEZssZ9Nfou5mzCojw7elszHc5BYBlNlIg5zjZ28hd/ocU8ve4ERDeyLbe45CIuvZE7tTt99PKxjp51Xpq4oZrqGkNRBtcN7tAr5vaA6EX585KL3VX+qm7NuCZTEBqIK0k5hAzI+WZwfU5ZxkrM5WEUPzw4af7uJ5SDRShVCouVCrUqIKMqARhoyHyHoP211bT6tZ6ahHsTBzNgCEr1GkGQ+Rwt99LnT4IAx2Q7oFof20l9Yjy/fXVtLK5lta2N6KfVa7tt93rRF9ZGqQrfHSMqnZ4KohYLCFqMUm1//aHf7uUAG32DW0gC+IVhyvWVy/PYRIeIW3du53uPthL733zw7RCHmXuZOphzjS6Gqez07NQtxrRVyOP+HF5FZ5Or6PE66iZ6X2nQzDDmM0KfH+IZ3v+9Hl6/JvH6RWRX0+onRa0n5cOZDolSE4uUvGj3/rBfs0aQgm8DUgncpMwoPjHoRaWkmjWg7OKf4Pkr73SDXsIL4JxKoEmyWIHKXRLCaguAzi/urke5x7S6PO+EumREXeQZouUpqlt2A84OLSjXk9NHmEvt8IuDdJLbBkofvjNf7x/IwG570vxoiD3fRZXcQ5j5PkCsaoiA9Rp89Z2INvEFowlJonmOC1cdSSFum3tBFvoq07YQ6fbTj2gg9p43QbxqGX0Pr4PAwuYEZ4RXMaTMQ6ElB5iBO1jMSefWk5S8cnDj/cnpsOIcIrRTPE06nIA93xRUWrAkRcBUwxrSprSXxmgy5tBRFubCAIYWAZIfamO8AZVUJ89Y2sYbMGNQLYE72mDYYcKwE44VDcTS5PTKxLIo6PDdDkaQtQIvEY8x8VeXZMiQNkVbnYEjLmelKAIw8Xd3JuWz703TRfDYTqhbBxeEJkJfBJrrnWTiyHyJcGohvvDu6JmGQwXZNVx/go0dbVSrMqSppBNtPFUXTLmht4KQmYLjZmaggSr3lgiOZqPArE3EMhCjEgKUyNwQH4mUUpsBqLn1AuvD8hIqRkuTs/DiDXg6YTnwGKKkpJymNDVuTRvMj8yT7rJodDdCgrbKDwDJxoBF8Q7dNvKUK2wMLPDgsZNCG616eej+9/aF6FZBLSsNuGBvDbiBnAdxpTtYYno1Q+jre+qXrZ3QINirtYmOUjqSSBsToS3+J+XBBrxZ+RdbwAky+vIBPBulySRp5SnB68P0tOnT1ClI1SKhHJxXRIyS4M+wfHf/NN/j7EjPqlWB9VZlRGEq2AXh7qK7obRI1kSoIgVDQyyj3fZuXMr3bl7N20Q3KLGQI/Nf7STJrpibqVUqqpOg1UFr6dEfIxUOwjXS7Q3IxiTj52RAZ8cU54eHqQXz6kOL5D2BCKI0mSV9DVNd3ZWIOIHmQg5GDMaJRGRcihW7kudLle3p66aEkhADTcrYb6gl9rY2EiDwSCICER5T6R77W4aU2I6FdMjHnSDyEY6PcOehhRF46sw7A7ea3V1DX7VQXYG8qdRX5+cHBNfhuEfG6jRfAERCddav05797dS7Sff+5Ngt44spABISCZCQ4UQpSLieg9cYEgESUgMT0Kl9O3Wv23zJuMOiOjP7ddUHvsmXy3IlnnOd48pTuVqPISIIW5Y15qDXbPZZtxaOj+/JD/TNsfRV2Hd01TtR2+I2N1OtT/8nT8OVqtKefBMRERnbQHRimiokUwPIsw0awkfER7IvEb1MG8SwfDt9OrANOGawXFPDVyT80qOJlFGnelsBJJE8VZwCS5Te5jxLgsiPM4BYsITOSTMK5rOdowhaEqKntK9e0jiX/8OkojXRSJH6ZtKqpRGJQlVSog0GYjAVzoCRU2zYEZ1VNf0GITEGPG//EDpsq67nNLYPkCY5zElCRE34DMI0W6KAg+VRqheLa2vd9P29lqq/fEn/y6IkPtGSYNLVXyErYRKcMhd0xCfAUonUJeAIELWx2uBYHV4VaL81Y+IBnJwG0K8Xsg8npHMZeQh6IYIRjN3SLUJ+F2n1fVWunOHfG3QSrX/8Ls/zUPTaY6YJRGBEx/OqtgNESV+ZqkhobeIEDnfi/NbRyDs+a3/+eA9g0MD3w+uQQRta9hGUbMkLXDXuOjSexlAl8sRHmyRtrb7ae+du+RntP/lP/tz8XxzlAO+fYhEgMRx9gVjR0VEYO7x/yHg5hlH9UQVtPAymtdbaEAHFdMmYOAcRvXwcO12n/ZFOj+7TMPLi7AHa4n5/DINVppIYS29+959EkZSnU/3Pt3PA5dDMOZXqcqI1WCF4DefO6mVp2l8hXfR+ep5nsMqj+oyCMyHSqNZORGha1VrlHKbxHB9ayvd291Ld+/tps2tndTu9jF0nIF9ixcufoUkcmNzI22Ts5lcFp/c/2S/wjqCm2f+ZS4L3AhJOJK2ICffEMEfjSsCNFqPCt185LfyAQ7wV7cLhKPgqV3j8QYEyt133017Dx6ke/f3MFyy4w5EoF4mpGYP2sYKKf0Wieft27eD+HpwUmRAKogoIRAM0EPhDOlAeIO8UBIMcabxkaLfAM8DeO/mOn+XkjAvvquiziC2qD02tjbTww/ejyWCndu30hZ1yq3IBG7zfScNVlciSBbEkf5gLd2+ez+IVLIgIueEiptcyx7u+ywQ/TrIX5EFCRdc5rpcjLNOUdPoE9D6nPEcrVXqBVxhY0Ag6xFH+ogfPa53SD9o218fpO17O+nBhw/Tex++H+scqxtr1BnUGN1mWlnrpa1bG2nn1hYeifqbitJ0v3BaiUxAdSs+Vp2CACDURhLU//Ie8JV7JVTmvFSvy/WKOunyYH2FCo5Ss9eimqPwWe2lwQYcpE2dNhZBFkidDkUSur0Gcrf37qeHlLjvvPcgbcL9wkkFhtF9W2s0SG8MqiZ/56Qpbd5dX19Lt5BOhIBffPqr5dT0AvZamDcsbBAZSpWRlA4J0cXSswFRAqamxXxXCkUHjlHgq6cD9LVHgdThHj4Md9ggH1pJl5d4meFFuiIz7RK5By2Jgdu070LkCobaX12FyB790y+6arZg2uP6xfHxcfri88/TZ5/9PflYPe1A7MOHDwh6EPyzT36Jt9NdgqrGRpInBCvsLIiIyyBCT6F5Tch7GpSeHTi9fns7baG723B1YC0NEV1UxbSiCRf7lK5mrFdXV2kEMS2I6EGE5WsDrjacwsEmwgvBxJCytqcNYpNOlZ6enkLEF0EEFIZx30YSa6hY7U8hIvw/hy9U0ojJAjkd2MfjOLseJ2EiNIBzO7t30jc/+U7auKPhIQXURb11kjoqOqOt3qM87Ap7jnPM6+qhTIxkWoxnTSTymQgl4gyj63afl0S47NYBjxXGE+gnq4lHdVbPssa/dfComnmzlVHcedueMx4W/nDfuaIWRX8T7saUJO3DP7wFZr46gJlgJmyciFhRdhwQivwWcHBfBZ9R96spMccFoyU4sIpmgZ09cKhb5RF3+CrSsdYW93SR5P8SgSp0nZoR4I5GGxMGpSR1CJWny0AH+uYAOf0WxLhIzxNHiU2JGgTTRiK61CR96xZSf9+h97eO6q2vHd4WcmLICLxosFISElBNt0jATTrvGwhUdQjEA1SRMuY4k4KaWI46BWNKEdOotuf4OioSYaqjaq2srKStza20tkYBFcGO1hWDvgIMGAD1Di6Ex2AwddJW6nqe2dAxCBk5DdHZPo3ZmcCLswt0+s1Cukth1tEB4zdnEbS6vEGiPJSAC5T27VqFnrRBrFgnwutJg7dBNf9urjkqAuJcfteLKU7B77E2h5eaz/NM3NK5Ua69Nx6PKPRd8jpLr18eplcvXsf57OgsnZ9cpDPglGvh/JQSdegSMX3FLAdOlv5D5Thr4BLp7IsEXU8gGBfviq7UFr+9++m+Shf6G1TkcxATN7zWCugMTkuA55jUghtN/PTOvW2CGkat53IQ56/g7vHhcXoJ8k+fPEsHLqbzfQhhw3MkA+Le03WOLqmxUQuX2Xw/VJEj1gwhRAmd4p2eP3+enj17GurrGoUEDam9i48hIhNQQUa6xJ/DG37JkvCrJaihP/SxU6TNW+upTVohUc5SqDaunD5+9BQCnqfD14fphO9nIK5qOQ3jouTR4VFMOktUTNPIbRig2lhROuflfJOBUgKev3hB0DvKzgRwOlQvUHz8zvduiMj1tTjn72+uMznqvDHEWWwNOJ4bzEg1YrNKo52uLscg6dLvQfrNl49iT4aIO4eUgdThLKuQyDt7eMHZ5THtZzLB2Gc52XTxZowNnfH80aPH6dXr1xA0DCJWB2SyJIyRin/63u/ui7xcjZhxc87XeiTTbM9yX5WRiBwz9POIHX/vKk+71Q0DPjw4DORFdDxyAliDTTH/1CYD5c1wEt5T32PFlTa2db71ejqPHQZjbGSIFE6Q3FMkcYT0RleXqU882t7aSLu794lTPeoJiQhE35ZElkD+jvFwdq3M+SRnuVUb2zgPVeM+5kwQU58TanOSTo6y6shRl3BFvEua0eHsymx4CoiIxcaII4o5gfiM/MotEk6e5TTl7Pw8naByh6jRFerGi/TXSDvkaR+QtpsI1n7147/mdfVFUGU0YdOFihqJSLGHabAyIFjQBoPSO2hgZq9X80lqkbmuEIBiDQ8uqg51p2garsC2qfWxKXTcjSrjEZ4IDyaTdEJKRbc5QnXOh8NYKjPbjR09jDeDO1eTUdDadBKZdOY7v/Vh+oPf/zHVH0T87Md/EUTkHClLJOIGnca6G5SqQj10cI3rgRtR8NVO7hrcTBlOLk6j4FFdonYGKZHr98yl+mkA6Axc3HTTysU5hn12GnOsSu78fEiV10pm08PLEbkX9mVqrwdyXgvQqVhsFTXSDuDWzlr64L3dtL1JLf5v/8XPGA9VKDlvlSUwKrn9drqL3q2sraaBqzpIYoW02t02ctKI7dqB3kNvoo7TSz7Tl8tfEtEjPXAW0MX6qzIlPz09ic0rTx7jNp++gCnLsAWlYUIYaxhO0M0xdJcJ1I8gYgqz5qnfxSuuNtPmANX+ve//ibrDqBZ5pBK6LwZvM/Duu3vpg298lG7dvRMScPbPpSynTq4wMHchVIvl+ngPg1TYEtfBEN2xzkIMVBuivbFGdxo1wmeP0t/9n1+nVwTCC7yXM4CCjqVNTWKGEEvAsSbhKpu5U0oDiFjrkb/VJ6l45877+zFtj54bPKJS4iMXrW/33BKHJ9Ae2mSoeX+g7Ug9rPphu5EzFlGAAsLydGO+ZxunZpzBczk3TExB8zzW+LCXVruTrkajWNJypcr1ONXHxRTx0UZ1t04WLBZIirHrZAfCEnssdm8/3Ff/c+GfddlovEqtcAcJ3Nu9F9WaJaEI2iG8AhM7BxgQFpT3IAgVqJfg83gWREgw7gvCnOHQfevdJECVGyGZvAJFsKvSG5PCEi8XeCQCf1wSMeOcCSn27nxAjc3BGL5gEFNFTK5u3b6Vbt+6FQGOx4hWTrgU6+Su2DAAA03Ik2auNfO+8UPJGFM0/pyiIJVw47wCBCO4L3ImcNYjrktExL9WGqhQibSEmDOZTMbYMKWAcfWUCWnWceN7Ow/3xVBGeThrHds0udYgB4OV8DYmZgYkV4BuAO5NOZsaQI1cKNuWmWw8K1NtUwmeRRvH0m4cRMJQsQZOwi0Prs25m8Cy7BJ3HOqlWqHq2loLCeti696bjhAsRO1CRDZD/tO53kYjNYepFs2nbkYBIffq6SKHBCBXbTRuN6jo92O5Sg5CmAvuF7Rz45YB68qdOBBjdNZrRSBFMkpIqehGjTnOAPZRXZeSleAxyaFSUQOUn4Gyg701VUu81nR8GUTUfvjt38foJUJp5M71KEbmldW1tL6JUWMfLpK7uHLNy+q/Bm5AspYeXp7HFIxSEzEHlQkeqpY1wMbGJrnOVtrGbbtNwsmyyHrtTSmFJug0inR4eJK+/PJx+l//83+Ttb4kXT/CFK5DjdsQUJ+N03JymWbjs7TSBd8Pbn20X4C8U4vmNEojVjKRRqydmZTBbRO3IXmRuyqddnH5ysxzRKA6JlfyPLoYpbPD03R6QOpxcJzOrRWoJ86PyaFIJ6ZXk5jFqLJha/CQCGeJyfkZrotzTnfQfGLHBK/lDiDdd4GEQAwfgS2gdC094Tduf2tf5M1iboCXnYkwn1f3VZWqGjOlMPIu3UHpfg1URwImEDWiVrg4ITs9ddcZ9/l+dX4Z967OLuN7LBEjKctuvVMu+k0v9Ga4UhFE3ZwO6vdXMGpiEqmIjHRckCIPwQ5o28IR4Kkpiu59d7+J+uRVTozLFU9sQUI08A6dVbvQurhDc6C8ZxWxlhKEtXAIjoIZUSK16rQnjajlXVlx3x2V12Spsd8bWxpNybdQQVNpiVAKWnosGahZMpbx3Yxi7S0zI6VBIm4wq3G90PtBdPHx/Y/3TQli3x/Iex3rbny8dk+gBMVeVs6qgwosMYG4mux31ZDkpljSbglSnJcznjo/w3fX3kwtrqyxGdj4IRHOArpgGRMMN4aub6IvEsiYJ6b/KZoQ69ymJUjCxXolI6bF9/Y+3Y9NuSDcoJOY0Co/FfKRZcINs1CDtOlz2BDXEpMJ4VquO7E0g6NTcJ+jJgsy3bzwHWA+wMuoEy/Q1CSyysecATStyYspCkaGqiHEnEqlUd9KnT2rIfUw6gD6DJXg5UCuAn0y40YbkBf4viDnd5dlAffrIO+eJtUmtooCBcg3lkT51IERGeo10pYamS+VlMtYOg3dtmBZq8oYc7SJpsHUgIgTMEbkwkx2yV76rztN1OM+fYYOqmsgG2oSxEiI11zEa2+B/ziMuDmVMHXnphIDFkg0wDSaMRdwQK57ztcoTAwAMiVS1ZRlbMYCRNKCSa1SAwJQnzmEa1uqmM/dWKy06s4DxeYPRURHXyHEITIdYC3wT+J4oO+POlsVxJZqrk9jiFgjBADcn9PJHMTJgtKUHCeDiaMbS9ppbW09dhB0O+72510Qsmgg9oF4dh6C+0Cu9H6WruAbxg4h6Ea8Q9qexfPGEvxkAko3AdJyOu7EtQT0KZJMFdy04h4od11q8yhZEICXiNK13qqnRheP1TMiY8T9btrc3kr3d3dJMO9FEHT/qxWg+i9oLDLVCYRDCqdXL16mI2LRxamzIiUREGu7kIqGFEW/A4Mg96KCmsOtGSpxTZ+zNsYGIrMeajKA46ud1N6kwlvrpnofQloYMoxctIEWA7RgZXuRGn1qghUIXu+klY1eWt9eSdt3NsiM76R3qFXu3LkdU5Et0nFLWVVE9RCB69GUSH2aXj1/lZ4/eZ6OXh2lS2LP/Jr+nYAUSWxQqP3ye78Q7+C/F0EE32fokYQ4k9GllnDvhtLTrztx3ItNKBgo+upvG9Q0M1L3SlmbeLhZJRdYbrpCEpwHawMksUHVuE7JW2avTjiYnosD/TjfJAH/8OvP09NHz9Jrd/gfkEddTcO91hE5pTaEgyu6V/uzT38eREhGEGDQoUMyv9Rw3yoVnb9YcdmqSaVlltlBnXoM7nZsHcLxyQkuMWeZTiDoTdRFZ0fcom2eFJt+OfdiEcblgHxfLahU1cLHqRrnrV4+e5U+h4iDFwfp9PAsfo6ASeH19JbGKGzTmIILrf3ik/8Umm83sXwFAa4ttCBg7fZ22t67G1tH835VDJA438EIe0ZxJCG6Q1NmfHt4rAhU0WXYT+z2h9gm7TXe4Dr3TTMkzCMmAUDMmZKLi2FsI3385ZP06IvH5GuXxAYczwSOR/SHEKVAe3QFnCHmV9//ZSkJ1cgW+GC47VbRWw92095H76WNuzuxoOgCipVbG73tojo4OFQupWuQgIToVO5khcyMUUWsFMMVqvNel0/NDCRA7ut1YgIaKfzfv/t1+vKz36QD6m6R163GxnLsQCLCcwLIIaBuNeaw0S0csrqy8He9waWr1Y2VAJeyOn2XZZEAatXG85hBugjod71PBj1RA0+Uzy2cQbMD4KWUYgNJR5ojMXBzire5PBtiuIfpFWn3qycv0/FLjPj4Is2xATgUwdSUxmDKfzAVIErD5roee7CDk1DFfcvK2N+KCpgS9NDpPrrdxQZaDOyeJVXk7QX4LMobVgDmQOUgDhwNkIlNEFKgwj33AprlHsPxZ188SY///sv05LNH6fw1NoZ3isgfuZghgLciJcoEmOxkq6DNt+/+9n5sKNfXQ4yBKNJi2moDLow7y2H+ErWy7gMOVhML5pxhBUFIeShqbwIRdY2yAUbcnG7o8/290ROKny//4Yv0+PNHIYlz6hFrD11plcoEt3W9EBEHg8mPsGHOxXd2v7tv1hj2QBsJkBANxuDkwmJMIEOAfIj6mVpbLzRBitUauB7JIqqazbaYyXu6Ba7djYnrtEwdoj7+bu7Fkxfp+aOn6cXjZ+ns9XG6pA65viTlfosAf0AY3NefgrRSqCAIgaDiu+98sh8WTgPLRYNerBDxcZYjMlylIKuRgJnkNV5kQsIWS1QYZEwORJEEkqYx/uwygO831xgv+i8cU36+wIU+c/EFaVj5IdJAPIw4xArSIYUS2QDdBB+JsQmHAqj99Ac/B2dkzk3twGgjUkpEn646bd9y0RsXS6phu7ADP3RmkIpFdIMV361JnFQYUo3FNlIOi61qpgMNjrUIF1pcfLlEKv6Qyt8QqX7mSdqQP0ELnee61ExoEvlMSFZnpI8m1H76w5/joLIk5HzWYyTBPQ1YwtbW12MCzS2f2alVwBGEIHJdMxJzsnkMEf5qd4JUPJx0CBthcHMj1cufYLrIoncyyWuXGxxjVzOHyAd4j/8hCcZyPG7xTDBvg4g//RFph4iYr3vmxeCEhJhF0tDZ7Wpdwvw+NrxjG3YgR+w4dmLyXEko2bxFu5y1E70yRhgbgrulCsbP27gOdc06ExAn7/Gupxumcb5pVrar/ccf/Yyzg4AIhCjWKE/jTR4BIhaTwvHJ3ZgfBSEYcZSTvm8bzh6BJG0kKAshG2cQ4zX9h3R4Xo0jUnFwzgi+IUK7rTyijC2bZYdzvdDLXKfxDGOdYZSkiLGxCo8W+zxQDxvreaxx3SrtRvV2jUQQIH1LTb43KEnr/nJxjKEBXnuvSRXX9Dd0tIkKUMFgKtn78L3yPgFiKwGZ2x5e5U95DeVvpzfyrPaTf/JHS41DzimJXGsjdj9wzU92dQzDe86E+Dz4LYviKGUkAjGQUig5x1NrDnEXHFWks0QqpLPa5uv8Xhzg45W95L5UqjdHaA/GXvu9f/QHEJHFTg+BTOaNfiQXKXHmHuSkNsVLqFypEnmU8uzBOeIOfYlLpcsVETYLzvO+TItDdeKI/yLru1yGu+ccXoiAHPeCb/zzL645/8vv/ziYUAWrzBEBImoiKwFkoXDfn1F2m6QfEOKvFo3CRmDrY6Ub75aH1/GNgVCwoNOzBGVdl1UhvzgqW8rj8xdN3HEmUQRLswnuSVi0jfY8A2+YgRqR26IlJGi4Wfep+sOKNgNQeSxQ4tkSW1lkcI94DfBnY3I5T0Hmw85vQIOLAT17z+vAI1QTssqX8nsyTgIyavk6W35u5/24DtXLEN9ry/T/AFHIhGn9wJgwAAAAAElFTkSuQmCC;" vertex="1" parent="1">
          <mxGeometry x="2627" y="3304" width="56.98" height="100" as="geometry" />
        </mxCell>
      </root>
    </mxGraphModel>
  </diagram>
</mxfile>
